<svg width="320" height="320" viewBox="0 0 320 320" xmlns="http://www.w3.org/2000/svg" role="img" aria-label="SDR">
  <defs>
    <linearGradient id="sdrGrad" x1="0" x2="1" y1="0" y2="1">
      <stop offset="0%" stop-color="#19d4ff"/>
      <stop offset="50%" stop-color="#6c5cff"/>
      <stop offset="100%" stop-color="#00ffb3"/>
    </linearGradient>
    <radialGradient id="glow" cx="50%" cy="50%" r="55%">
      <stop offset="0%" stop-color="#19d4ff" stop-opacity="0.35"/>
      <stop offset="60%" stop-color="#19d4ff" stop-opacity="0.12"/>
      <stop offset="100%" stop-color="#19d4ff" stop-opacity="0"/>
    </radialGradient>
  </defs>
  <rect width="320" height="320" rx="36" fill="#0d1018"/>
  <circle cx="160" cy="160" r="140" fill="url(#glow)"/>
  <path d="M64 116c0-26 20-44 50-44h92c30 0 50 18 50 44v88c0 26-20 44-50 44h-92c-30 0-50-18-50-44v-24h50v20c0 6 4 10 12 10h62c8 0 12-4 12-10v-80c0-6-4-10-12-10h-62c-8 0-12 4-12 10v24H64v-28z" fill="url(#sdrGrad)"/>
  <path d="M98 152h124" stroke="#0b1118" stroke-width="10" opacity="0.35"/>
  <text x="160" y="188" text-anchor="middle" font-family="'Space Grotesk', sans-serif" font-size="36" fill="#dfe7ff">SDR</text>
</svg>
